<?xml version="1.0" encoding="utf-8"?>
<!-- Generator: Adobe Illustrator 23.0.3, SVG Export Plug-In . SVG Version: 6.00 Build 0)  -->
<svg version="1.1" id="Layer_1" xmlns="http://www.w3.org/2000/svg" xmlns:xlink="http://www.w3.org/1999/xlink" x="0px" y="0px"
	 viewBox="0 0 1719 822" style="enable-background:new 0 0 1719 822;" xml:space="preserve">
<style type="text/css">
	.st0{fill:#D13232;}
	.st1{fill-rule:evenodd;clip-rule:evenodd;fill:#FFFFFF;}
	.st2{opacity:0.75;fill-rule:evenodd;clip-rule:evenodd;fill:#FFFFFF;}
	.st3{fill-rule:evenodd;clip-rule:evenodd;fill:#D13232;}
	.st4{opacity:0.35;fill-rule:evenodd;clip-rule:evenodd;fill:#FFFFFF;}
	.st5{opacity:0.2;fill-rule:evenodd;clip-rule:evenodd;fill:#FFFFFF;}
</style>
<g>
	<rect y="663" width="1450" height="159"/>
	<rect y="663" class="st0" width="33" height="159"/>
	<path class="st1" d="M1359.1,772.9v-25.8c0-7.5-4.1-13.2-11.9-13.2c-7.5,0-12.6,6.3-12.6,13.8v25.2h-12.1v-49.4h10.9l0.8,6.7
		c5-4.9,10-7.4,16.2-7.4c11.6,0,20.9,8.7,20.9,24.2v25.9H1359.1z M1274.9,752.6c0.8,6.1,6.1,10.5,14.7,10.5c4.5,0,10.4-1.7,13.2-4.6
		l7.8,7.7c-5.2,5.4-13.7,8-21.2,8c-17,0-27.1-10.5-27.1-26.3c0-15,10.2-25.8,26.2-25.8c16.5,0,26.8,10.2,24.9,30.5H1274.9z
		 M1288.9,732.9c-6.6,0-12,3.2-13.8,9.6h26.6C1300.9,736.1,1295.9,732.9,1288.9,732.9z M1223.9,773.2l-29.1-70.3h14.8l21.1,54.5
		l21.2-54.5h14.8l-29.1,70.3H1223.9z M1159.6,734.4c-6.4,0-12.3,3.4-12.3,12.5v26h-12.2v-49.3h11.3l0.9,5.7c3.8-6.1,8.9-7,13.9-7
		c5.1,0,10,2,12.7,4.7l-5.5,10.6C1165.9,735.5,1163.6,734.4,1159.6,734.4z M1087.1,752.6c0.8,6.1,6.1,10.5,14.7,10.5
		c4.5,0,10.4-1.7,13.2-4.6l7.8,7.7c-5.2,5.4-13.7,8-21.2,8c-17,0-27.1-10.5-27.1-26.3c0-15,10.2-25.8,26.2-25.8
		c16.5,0,26.8,10.2,24.9,30.5H1087.1z M1101.2,732.9c-6.6,0-12,3.2-13.8,9.6h26.6C1113.2,736.1,1108.2,732.9,1101.2,732.9z
		 M1052.8,766.1c-3.8,5.9-9.9,7.9-15.9,7.9c-14.5,0-25.4-9.6-25.4-25.8c0-17,10.7-25.8,25.1-25.8c5.2,0,13.3,2.8,16.2,7.9V703h12.2
		v69.9h-11.4L1052.8,766.1z M1037.7,733.8c-7.8,0-14,5.5-14,14.4c0,8.6,6.2,14.5,14,14.5c7.7,0,14.3-5.6,14.3-14.5
		C1052,739.6,1045.4,733.8,1037.7,733.8z M970.9,747.1c0-7.5-4.1-13.2-11.9-13.2c-7.5,0-12.6,6.3-12.6,13.8v25.2h-12.1v-49.4h10.9
		l0.8,6.7c5-4.9,10-7.4,16.2-7.4c11.6,0,20.9,8.7,20.9,24.2v25.9h-12.2V747.1z M912.2,765.7c-2.8,5.8-10.5,8.6-16,8.7
		c-14.6,0.1-25.4-8.9-25.4-26.2c0-17,11.3-25.9,25.7-25.8c6.6,0,12.9,3.1,15.7,8l0.4-6.8h11.7v49.3h-11.5L912.2,765.7z M897.6,733.3
		c-8.1,0-14.6,5.5-14.6,14.9c0,9.4,6.5,15,14.6,15C916.8,763.2,916.8,733.3,897.6,733.3z M833.4,773.1l-21.1-49.6h13.3l6.8,16.3
		l7.6,20.8l7.5-20.6l6.8-16.5h13.3l-21,49.6H833.4z M756.7,750.6v22.3h-12.2V703h12.2v40.4l16.6-19.8h14.6v0.7l-20.1,22.5l22.9,25.2
		v0.9H776L756.7,750.6z M697.9,752.6c0.8,6.1,6.1,10.5,14.7,10.5c4.5,0,10.4-1.7,13.2-4.6l7.8,7.7c-5.2,5.4-13.7,8-21.2,8
		c-17,0-27.1-10.5-27.1-26.3c0-15,10.2-25.8,26.2-25.8c16.5,0,26.8,10.2,24.9,30.5H697.9z M711.9,732.9c-6.6,0-12,3.2-13.8,9.6h26.6
		C723.9,736.1,718.9,732.9,711.9,732.9z M663.2,709.7c0-9.5,14.4-9.5,14.4,0S663.2,719.2,663.2,709.7z M639.7,746.3
		c0-6.5-2.7-12-9.3-12c-6.6,0-10.7,5.7-10.7,12.2v26.4h-12.2v-26.4c0-6.5-3.4-12.4-10.1-12.4c-6.6,0-10.5,5.9-10.5,12.4v26.4h-12.2
		v-49.4H586l0.9,6c2.6-5,8.3-6.8,13-6.8c5.9,0,11.8,2.4,14.6,9.2c4.4-7,10.1-9,16.5-9c14,0,20.9,8.6,20.9,23.4v26.6h-12.2V746.3z
		 M527.8,752.6c0.8,6.1,6.1,10.5,14.7,10.5c4.5,0,10.4-1.7,13.2-4.6l7.8,7.7c-5.2,5.4-13.7,8-21.2,8c-17,0-27.1-10.5-27.1-26.3
		c0-15,10.2-25.8,26.2-25.8c16.5,0,26.8,10.2,24.9,30.5H527.8z M541.8,732.9c-6.6,0-12,3.2-13.8,9.6h26.6
		C553.8,736.1,548.8,732.9,541.8,732.9z M494.7,747.1c0-7.5-4.1-13.2-11.9-13.2c-7.5,0-12.6,6.3-12.6,13.8v25.2h-12.1v-49.4H469
		l0.8,6.7c5-4.9,10-7.4,16.2-7.4c11.6,0,20.9,8.7,20.9,24.2v25.9h-12.2V747.1z M435.7,747.1c0-7.5-4.1-13.2-11.9-13.2
		c-7.5,0-12.6,6.3-12.6,13.8v25.2h-12.1v-49.4H410l0.8,6.7c5-4.9,10-7.4,16.2-7.4c11.6,0,20.9,8.7,20.9,24.2v25.9h-12.2V747.1z
		 M375.1,759.7h-36.6l-6,13.2h-14.3l31.4-70H364l31.4,70H381L375.1,759.7z M356.8,717.6l-13,29.8h26L356.8,717.6z M279.8,766.6
		c0-9.5,14.4-9.5,14.4,0C294.2,776.1,279.8,776.1,279.8,766.6z M240,773.1l-21.1-49.6h13.3l6.8,16.3l7.6,20.8l7.5-20.6l6.8-16.5
		h13.3l-21,49.6H240z M207.2,766.6c0-9.5,14.4-9.5,14.4,0C221.6,776.1,207.2,776.1,207.2,766.6z M184.7,703h12.1v69.9h-12.1V703z
		 M157,766.6c0-9.5,14.4-9.5,14.4,0C171.4,776.1,157,776.1,157,766.6z M123.1,774c-16,0-25.6-11.5-25.6-25.7
		c0-14.1,9.8-25.7,25.5-25.7c15.7,0,25.8,11.6,25.8,25.7C148.9,762.5,139.1,774,123.1,774z M123.1,733.7c-8.8,0-13.4,7.2-13.4,14.6
		c0,7.5,4.5,14.5,13.4,14.5c8.9,0,13.4-7,13.4-14.5C136.5,740.9,131.3,733.7,123.1,733.7z M676.5,772.9h-12.2v-49.5h12.2V772.9z"/>
</g>
<rect width="1719" height="582"/>
<g>
	<path class="st2" d="M1072,448.5h-32.2c0.7,5.1,5.1,8.8,12.3,8.8c3.8,0,8.7-1.4,11-3.8l6.5,6.4c-4.4,4.5-11.5,6.7-17.7,6.7
		c-14.2,0-22.7-8.8-22.7-22c0-12.6,8.5-21.6,21.9-21.6C1065,422.9,1073.6,431.5,1072,448.5z M1051.5,432c-5.5,0-10,2.7-11.5,8h22.3
		C1061.5,434.7,1057.3,432,1051.5,432z M1012,407h10.1v58.5H1012V407z M983.2,466.4c-5,0-10.1-1.7-13.3-6.6l-0.7,5.7h-9.5V407h10.2
		v22.8c2.4-4.3,9.2-6.6,13.6-6.6c12.1,0,21,7.4,21,21.6C1004.4,458.3,995.3,466.4,983.2,466.4z M982.5,432.7c-6.4,0-12,4.9-12,12.1
		c0,7.4,5.5,12.1,12,12.1c6.5,0,11.7-4.9,11.7-12.1C994.2,437.3,989,432.7,982.5,432.7z M939.1,443.2c0-5.4-2.3-10-7.8-10
		c-5.5,0-9,4.8-9,10.2v22.1h-10.2v-22.1c0-5.4-2.8-10.4-8.5-10.4c-5.5,0-8.8,4.9-8.8,10.4v22.1h-10.2v-41.3h9.5l0.8,5
		c2.2-4.2,6.9-5.7,10.9-5.7c4.9,0,9.9,2,12.2,7.7c3.7-5.9,8.5-7.5,13.8-7.5c11.7,0,17.5,7.2,17.5,19.6v22.3h-10.2V443.2z
		 M845.4,448.5c0.7,5.1,5.1,8.8,12.3,8.8c3.8,0,8.7-1.4,11-3.8l6.5,6.4c-4.4,4.5-11.5,6.7-17.7,6.7c-14.2,0-22.7-8.8-22.7-22
		c0-12.6,8.5-21.6,21.9-21.6c13.8,0,22.4,8.5,20.8,25.5H845.4z M857.1,432c-5.5,0-10,2.7-11.5,8h22.3C867.2,434.7,863,432,857.1,432
		z M812.5,440.1c7.8,0.5,17.7,2.3,17.7,13.2c0,7.3-5.9,13.6-17.7,13.6c-6.5,0-13.1-1.1-19.1-7.4l5-7.3c2.9,3.3,9.6,5.7,14.2,5.8
		c3.8,0.1,7.4-1.9,7.4-4.9c0-2.8-2.3-4-8.2-4.4c-7.8-0.6-17.1-3.4-17.1-12.8c0-9.5,9.9-12.9,17.4-12.9c6.4,0,11.3,1.3,16.1,5.4
		l-5.7,6.7c-2.9-2.8-6.3-3.7-10.2-3.7c-4.9,0-7.5,1.5-7.5,4.1C804.8,438.3,807.3,439.8,812.5,440.1z M776.6,443.9
		c0-6.3-3.4-11-10-11c-6.3,0-10.5,5.3-10.5,11.5v21.1H746v-41.3h9.1l0.7,5.6c4.2-4.1,8.4-6.2,13.6-6.2c9.7,0,17.5,7.3,17.5,20.3
		v21.7h-10.2V443.9z M706.1,448.5c0.7,5.1,5.1,8.8,12.3,8.8c3.8,0,8.7-1.4,11-3.8l6.5,6.4c-4.4,4.5-11.5,6.7-17.7,6.7
		c-14.2,0-22.7-8.8-22.7-22c0-12.6,8.5-21.6,21.9-21.6c13.8,0,22.4,8.5,20.8,25.5H706.1z M717.9,432c-5.5,0-10,2.7-11.5,8h22.3
		C727.9,434.7,723.7,432,717.9,432z M661.5,407h10.1v58.5h-10.1V407z M642.7,459.4c-2.3,4.9-8.8,7.2-13.4,7.3
		c-12.2,0.1-21.3-7.4-21.3-21.9c0-14.2,9.5-21.7,21.5-21.6c5.5,0,10.8,2.6,13.1,6.7l0.3-5.7h9.8v41.3h-9.6L642.7,459.4z
		 M630.5,432.3c-6.8,0-12.2,4.6-12.2,12.5c0,7.9,5.4,12.6,12.2,12.6C646.6,457.3,646.6,432.3,630.5,432.3z M591.6,459.4
		c-2.3,4.9-8.8,7.2-13.4,7.3c-12.2,0.1-21.3-7.4-21.3-21.9c0-14.2,9.5-21.7,21.5-21.6c5.5,0,10.8,2.6,13.1,6.7l0.3-5.7h9.8v41.3
		h-9.6L591.6,459.4z M579.3,432.3c-6.8,0-12.2,4.6-12.2,12.5c0,7.9,5.4,12.6,12.2,12.6C595.4,457.3,595.4,432.3,579.3,432.3z
		 M538.8,456.9c3.3,0,6.5-0.9,9-3.4l6.9,6.7c-4.8,4.7-9.8,6.5-15.9,6.5c-12,0-21.9-7.2-21.9-21.8c0-14.6,10-21.8,21.9-21.8
		c5.9,0,10.4,1.7,14.9,6.1l-6.4,6.8c-2.4-2.2-5.4-3.3-8.3-3.3c-6.9,0-11.9,5-11.9,12.2C527,452.7,532.4,456.9,538.8,456.9z
		 M490.7,466.4c-13.4,0-21.4-9.6-21.4-21.5c0-11.8,8.2-21.5,21.3-21.5s21.6,9.7,21.6,21.5C512.2,456.8,504.1,466.4,490.7,466.4z
		 M490.7,432.7c-7.4,0-11.2,6-11.2,12.2c0,6.3,3.8,12.1,11.2,12.1c7.4,0,11.2-5.9,11.2-12.1C501.9,438.7,497.6,432.7,490.7,432.7z
		 M437.2,465.7l-24.4-58.8h12.4l17.7,45.6l17.7-45.6h12.4l-24.4,58.8H437.2z"/>
	<path class="st3" d="M1561.4,249.4c-15.6,0-24.2,4.8-24.2,13.2c0,8.6,7.8,13.4,24.7,14.5c25,1.6,56.7,7.2,56.7,42.4
		c0,23.4-19.1,43.5-56.9,43.5c-20.9,0-41.9-3.5-61.2-23.6l16.1-23.4c9.4,10.5,30.9,18.3,45.6,18.5c12.4,0.3,23.9-6.2,23.9-15.8
		c0-9.1-7.5-12.9-26.3-14c-25-1.9-54.8-11-54.8-41.1c0-30.6,31.7-41.3,55.8-41.3c20.7,0,36.2,4,51.6,17.5l-18.3,21.5
		C1584.8,252.4,1574,249.4,1561.4,249.4z M1463.7,330.5c5.1,0,11-1.6,15.8-4l9.1,27.9c-9.4,3.8-17.2,5.4-27.1,5.6
		c-28.7,1.1-47.5-15.3-47.5-48.3v-57.2h-24.7v-28.2h24.7v-34.1l32.8-3.5v37.6h36.5v28.2h-36.8v57.2
		C1446.5,324.3,1453.5,330.5,1463.7,330.5z M1345.3,289.2c0-20.1-11-35.4-32-35.4c-20.1,0-33.8,16.9-33.8,37.1v67.7H1247V225.8h29.3
		l2.1,18c13.4-13.2,26.9-19.9,43.5-19.9c31.1,0,56.1,23.4,56.1,65v69.5h-32.8V289.2z M1119.2,303.9c2.1,16.4,16.4,28.2,39.5,28.2
		c12.1,0,27.9-4.6,35.4-12.3l20.9,20.7c-14,14.5-36.8,21.5-56.9,21.5c-45.6,0-72.8-28.2-72.8-70.6c0-40.3,27.4-69.3,70.3-69.3
		c44.3,0,72,27.4,66.9,81.9H1119.2z M1156.8,251c-17.7,0-32.2,8.6-37.1,25.8h71.4C1189,259.6,1175.6,251,1156.8,251z M986.8,362.7
		c-70.6,0-99.3-46.4-99.3-95.8c0-52.9,33-101.8,99.3-101.8c25.2,0,50.5,9.7,69.8,28.7l-22,22.6c-12.6-12.1-31.4-18.8-47.8-18.8
		c-40.3,0-64.7,30.6-64.7,69.3c0,30.9,18,62.8,64.7,62.8c14.8,0,27.7-3.2,42.4-15v-33.3h-48.1v-31.7h80.6v79.2
		C1043.2,350.1,1019.9,362.7,986.8,362.7z"/>
	<path class="st1" d="M813.1,301.8H709.7c2.1,16.4,16.4,28.2,39.5,28.2c12.1,0,27.9-4.6,35.4-12.3l20.9,20.7
		c-14,14.5-36.8,21.5-56.9,21.5c-45.6,0-72.8-28.2-72.8-70.6c0-40.3,27.4-69.3,70.3-69.3C790.6,219.9,818.2,247.3,813.1,301.8z
		 M747.3,248.9c-17.7,0-32.2,8.6-37.1,25.8h71.4C779.5,257.5,766.1,248.9,747.3,248.9z M621.4,286.7c0-24.2-12.6-34.4-30.1-34.4
		c-19.3,0-32.8,16.4-32.8,36.2v67.7h-32.8V168.3h32.8v73.6c11.8-15.3,26.3-19.9,41.4-19.9c37.6,0,54.2,25.5,54.2,64.4v69.8h-32.8
		V286.7z M447.1,356.3h-35.4V200.6h-59.6v-32.2c54.2,0,100.2,0,154.7,0v32.2h-59.6V356.3z"/>
</g>
<g>
	<path class="st2" d="M275.3,459c-11.1,2.7-44.2,10.4-60.7,10.4c-0.3,0-0.7,0-1,0c-20-0.4-25.4-5.5-31.6-11.5l-0.3-0.3
		c-6.5-6.2-6.6-15.6-6.8-23.1c0-0.9,0-1.8-0.1-2.7c-0.1-4.2,0.2-7.8,0.5-11.1c0.2-2.7,0.4-5.1,0.3-6.9c-0.1-1-2.1-3.7-3.5-5.5
		c-2.9-4-6.5-9-7.4-14.5c-0.8-5.2,1.4-9.4,4.3-12.5c-3.5-1.6-7.5-3.8-9.5-6.3c-3.7-4.5-2.7-9.4-1.9-13.4c0.2-1.1,0.4-2.2,0.5-3.2
		c0.2-2.4,0.6-5.4,0.8-7.6c-5.6-0.9-15.8-2.7-20.8-4.4c-6.9-2.4-10.9-5.9-13.5-11.9c-2.5-5.6-0.5-8.8,2.2-13.2
		c0.5-0.8,1-1.7,1.6-2.7c2.1-3.5,6.2-9.5,10.6-15.9c3.9-5.6,7.9-11.5,10.8-16c4.9-7.7,12.9-21.1,16.1-26.5c-2.5-3.6-6.9-10.6-7.7-17
		c-0.8-6.3,1.5-10,3.9-13.9c1.2-1.9,2.5-4,3.7-6.9c2.6-6.1,9-21.8,12.7-36.6c3.1-12.5,7.7-24.1,9.7-28.9
		c-3.4-4.1-11.2-13.9-14.3-20.3c-3.8-7.9-6.2-17.5-6.2-20.7c0-0.3,0-0.6,0-1c-0.1-2.6-0.2-6.4,2.3-9.7c3.1-4,9.3-5.3,12.2-5.5
		c2.5-0.1,5-0.2,9.2-0.5c4-0.2,23.8-6.6,38.2-11.2c14.2-4.6,57.4-18.5,93.7-23c8.7-1.1,16.4-1.6,23.6-1.6c14.9,0,24.9,2.3,34.6,4.5
		c2.6,0.6,5.3,1.2,8.1,1.8c18.3,3.7,40.5,24.4,41.4,25.3l-5.4,5.9c-0.2-0.2-17.8-15.4-37.5-20.2c-13.4-3.3-24.4-4.7-36.7-4.7
		c-7.5,0-15.8,0.5-26,1.6c-26.8,2.9-69.6,16.2-90.6,23.6c-8.3,2.9-14.9,5.5-20.2,7.5c-8.5,3.3-13.6,5.2-17.6,5.6
		c-1.1,0.1-2.1,0.2-3.1,0.2c-1.6,0-2.8-0.2-3.6-0.3c-0.4-0.1-0.7-0.1-1-0.1c-0.1,0-0.3,0-0.7,0.1l-0.8,0.2c-2.6,0.7-3.4,1-3.7,1.8
		c-0.5,1.1,0.7,3.9,1.6,5.9l0.3,0.6c1.5,3.4,5.7,11.9,8.1,15.6c1.9,3,9.1,11.1,11.7,13.9l1.6,1.8l-0.8,2.3c0,0.1-4.4,12.2-6.4,17.6
		c-1.5,4-3.4,10.6-5.5,19.2c-1.5,6.1-8.4,25.4-10.7,30.6c-1.3,2.8-2.6,5.2-3.7,7.2c-0.9,1.6-1.7,3-2,3.9c-0.2,0.5-0.4,1-0.6,1.5
		c-0.7,1.9-1.3,3.3-1,6.5c0.2,2.4,4.3,9.6,7.9,14.9l1.5,2.1l-1.3,2.2c-0.1,0.2-13.6,22.6-19.8,32.4c-4,6.4-8.6,12.8-12.3,17.9
		c-2,2.8-3.7,5.1-4.8,6.7c-0.9,1.3-1.8,2.6-2.8,3.8c-1.2,1.5-3.6,4.7-3.4,5.6c0.2,0.7,0.3,0.9,3.1,2.2c1.2,0.6,2.8,1.4,4.6,2.5
		c2.3,1.4,12,2.4,22.8,2.4l4.6,0l-0.4,4.4c-0.1,1.3-1.1,13-1.6,16.1l-0.1,0.5c-0.4,2.6-0.8,5.1,0.2,7.8c0.9,2.2,2.2,3,5.1,4.6
		l0.6,0.4c3.2,1.8,10.1,5.4,10.1,5.5l7.4,3.9l-7.7,3.3c-2,0.9-7.5,4.2-7,7.9c0.5,3.6,1.6,5.1,3.4,7.5c1.3,1.8,2.9,4,4.3,7.2
		c2.5,5.7,1.8,10.4,1.2,15c-0.3,2.1-0.6,4.1-0.6,6.3c0,6.7,0,14.4,4.6,21.1c4,5.8,8.2,6.2,18.2,7.1l1,0.1c0.9,0.1,1.8,0.1,2.8,0.1
		c7.6,0,18-2.1,26.3-3.7c3.3-0.7,6.2-1.2,8.6-1.6c8.7-1.4,28.6-7.9,28.8-8l3.8-1.2l23.5,70.1l-15.1,8.7L275.3,459z"/>
	<path class="st4" d="M124,156.6c-3.8-7.8-6.2-17.5-6.2-20.7c0-0.3,0-0.6,0-1c-0.1-2.6-0.2-6.4,2.3-9.7c3.1-4,9.3-5.3,12.2-5.5
		c0.6,0,1.2,0,1.8,0c8.1,0,10.2,3.3,10.6,6c0.5,4-3.1,7.7-5.8,8.5l-0.8,0.2c-2.6,0.7-3.4,1-3.7,1.8c-0.5,1.1,0.7,3.9,1.6,5.9
		l0.3,0.6c1.5,3.4,5.7,11.9,8.1,15.6c1.9,3,9.1,11.1,11.7,13.9l1.6,1.8l-0.8,2.3c0,0.1-4.4,12.2-6.4,17.6c-1.5,4-3.4,10.6-5.5,19.2
		c-1.4,6-8.4,25.4-10.7,30.6c-1.3,2.8-2.6,5.2-3.7,7.2c-0.9,1.6-1.7,3-2,3.9c-0.2,0.5-0.4,1-0.6,1.5c-0.7,1.9-1.3,3.3-1,6.4
		c0.2,2.4,4.3,9.6,7.9,14.9l1.5,2.1l-1.3,2.2c-0.1,0.2-13.6,22.6-19.8,32.4c-4,6.4-8.6,12.8-12.3,17.9c-2,2.8-3.7,5.1-4.7,6.7
		c-0.9,1.3-1.8,2.6-2.8,3.8c-1.2,1.5-3.6,4.7-3.4,5.6c0.2,0.7,0.3,0.9,3.1,2.2c1.2,0.6,2.8,1.4,4.6,2.5c2.3,1.4,12,2.4,22.8,2.4
		l4.6,0l-0.4,4.4c-0.1,1.3-1.1,13-1.6,16.1l-0.1,0.5c-0.4,2.6-0.8,5.1,0.2,7.8c0.9,2.2,2.2,3,5.1,4.6l0.6,0.4
		c3.2,1.8,10.1,5.4,10.1,5.5l7.4,3.9l-7.7,3.3c-2,0.9-7.5,4.2-7,7.9c0.5,3.6,1.6,5.1,3.4,7.5c1.3,1.8,2.9,4,4.3,7.2
		c2.5,5.7,1.8,10.4,1.2,15c-0.3,2.1-0.6,4.1-0.6,6.3c0,6.7,0,14.4,4.6,21.1c4,5.8,8.2,6.2,18.2,7.1l1,0.1c5.7,0.5,7.6,4,7.5,6.8
		c-0.2,5.2-6.9,9.3-15.2,9.3c-6.2,0-15.8-2.2-26.6-12.5c-6.5-6.2-6.6-15.6-6.8-23.1c0-0.9,0-1.8-0.1-2.7c-0.1-4.2,0.2-7.8,0.5-11.1
		c0.2-2.7,0.4-5.1,0.3-6.9c-0.1-1-2.1-3.7-3.5-5.5c-2.9-4-6.5-9-7.4-14.5c-0.8-5.2,1.4-9.4,4.3-12.5c-3.5-1.6-7.5-3.8-9.5-6.3
		c-3.7-4.5-2.7-9.4-1.9-13.4c0.2-1.1,0.4-2.2,0.5-3.2c0.2-2.4,0.6-5.4,0.8-7.6c-5.6-0.9-15.8-2.7-20.8-4.4
		c-6.9-2.4-10.9-5.9-13.5-11.9c-2.5-5.6-0.5-8.8,2.2-13.2c0.5-0.8,1-1.7,1.6-2.7c2.1-3.5,6.2-9.5,10.7-15.9
		c3.9-5.6,7.9-11.5,10.8-16c4.9-7.7,12.9-21.1,16.1-26.5c-2.5-3.6-6.9-10.6-7.7-17c-0.8-6.3,1.5-10,3.9-13.9c1.2-1.9,2.5-4,3.7-6.9
		c2.6-6.1,9-21.8,12.7-36.6c3.1-12.5,7.7-24.1,9.7-28.9"/>
	<path class="st5" d="M77,282.8c0.2,2.4,4.3,9.6,7.9,14.9l1.5,2.1l-1.3,2.2c-0.1,0.2-13.6,22.6-19.8,32.4c-4,6.4-8.6,12.8-12.3,17.9
		c-2,2.8-3.7,5.1-4.8,6.7c-0.9,1.3-1.8,2.6-2.8,3.8c-1.2,1.5-3.6,4.7-3.4,5.6c0.2,0.7,0.3,0.9,3.1,2.2c1.2,0.6,2.8,1.4,4.6,2.5
		c2.3,1.4,12,2.4,22.8,2.4l4.6,0l-0.4,4.4c-0.1,1.3-1.1,13-1.6,16.1l-0.1,0.5c-0.4,2.6-0.8,5.1,0.2,7.8c0.9,2.2,2.2,3,5.1,4.6
		l0.6,0.4c3.2,1.8,10.1,5.4,10.1,5.5l7.4,3.9l-7.7,3.3c-2,0.9-7.5,4.2-7,7.9c0.5,3.6,1.6,5.1,3.4,7.5c1.3,1.8,2.9,4,4.3,7.2
		c2.5,5.7,1.8,10.4,1.2,15c-0.3,2.1-0.6,4.1-0.6,6.3c0,6.7,0,14.4,4.6,21.1c4,5.8,8.2,6.2,18.2,7.1l1,0.1c5.7,0.5,7.6,4,7.5,6.8
		c-0.2,5.2-6.9,9.3-15.1,9.3c0,0,0,0,0,0c-6.1,0-15.8-2.2-26.6-12.5c-6.5-6.2-6.6-15.6-6.8-23.1c0-0.9,0-1.8-0.1-2.7
		c-0.1-4.2,0.2-7.8,0.5-11.1c0.2-2.7,0.4-5.1,0.3-6.9c-0.1-1-2.1-3.7-3.5-5.5c-2.9-4-6.5-9-7.4-14.5c-0.8-5.2,1.4-9.4,4.3-12.5
		c-3.5-1.6-7.5-3.8-9.5-6.3c-3.7-4.5-2.7-9.4-1.9-13.4c0.2-1.1,0.4-2.2,0.5-3.2c0.2-2.4,0.6-5.4,0.8-7.6c-5.6-0.9-15.8-2.7-20.8-4.4
		c-6.9-2.4-10.9-5.9-13.5-11.9c-2.5-5.6-0.5-8.8,2.2-13.2c0.5-0.8,1-1.7,1.6-2.7c2.1-3.5,6.2-9.5,10.7-15.9
		c3.9-5.6,7.9-11.5,10.8-16c4.9-7.7,12.9-21.1,16.1-26.5c-2.5-3.6-6.9-10.6-7.7-17c-0.8-6.3,1.5-10,3.9-13.9c1.2-1.9,2.5-4,3.7-6.9
		c2.6-6.1,9-21.8,12.7-36.6c3.1-12.5,7.7-24.1,9.7-28.9c-3.4-4.1-11.2-13.9-14.3-20.3c-3.8-7.9-6.2-17.5-6.2-20.7c0-0.3,0-0.6,0-1
		c-0.1-2.6-0.2-6.4,2.3-9.7c3.1-4,9.3-5.3,12.2-5.5c0.6,0,1.2,0,1.8,0c8.1,0,10.2,3.3,10.6,6c0.5,4-3.1,7.7-5.8,8.5l-0.8,0.2
		c-2.5,0.7-3.4,1-3.7,1.8c-0.5,1.1,0.7,3.9,1.6,5.9l0.3,0.6c1.5,3.4,5.7,11.9,8.1,15.6c1.9,3,9.1,11.1,11.7,13.9l1.6,1.8l-0.8,2.3
		c0,0.1-4.4,12.2-6.4,17.6c-1.5,4-3.4,10.6-5.4,19.2c-1.5,6.1-8.4,25.4-10.7,30.6c-1.3,2.8-2.6,5.2-3.7,7.2c-0.9,1.6-1.7,3-2,3.9"/>
</g>
</svg>
