<?xml version="1.0" standalone="no"?>
<!DOCTYPE svg PUBLIC "-//W3C//DTD SVG 20010904//EN"
 "http://www.w3.org/TR/2001/REC-SVG-20010904/DTD/svg10.dtd">
<svg version="1.0" xmlns="http://www.w3.org/2000/svg"
 width="300.000000pt" height="300.000000pt" viewBox="0 0 300.000000 300.000000"
 preserveAspectRatio="xMidYMid meet">
<metadata>
Created by potrace 1.11, written by Peter Selinger 2001-2013
</metadata>
<g transform="translate(0.000000,300.000000) scale(0.100000,-0.100000)"
fill="#000000" stroke="none">
<path d="M0 1500 l0 -1500 1500 0 1500 0 0 1500 0 1500 -1500 0 -1500 0 0
-1500z m1900 799 c156 -19 316 -88 425 -184 l50 -43 -85 -89 c-47 -48 -88 -89
-91 -91 -3 -1 -35 17 -72 42 -163 109 -351 133 -529 66 -326 -122 -438 -621
-198 -883 165 -181 509 -207 721 -56 l29 20 0 135 0 134 -200 0 -200 0 0 130
0 130 335 0 335 0 0 -320 0 -320 -36 -40 c-85 -93 -217 -174 -351 -212 -68
-20 -99 -23 -248 -22 -198 1 -275 17 -415 86 -120 60 -239 178 -297 298 -174
355 -84 822 201 1052 113 91 256 150 406 167 108 12 126 12 220 0z"/>
</g>
</svg>
