<?xml version="1.0" encoding="UTF-8" standalone="no"?>
<svg
   xmlns:dc="http://purl.org/dc/elements/1.1/"
   xmlns:cc="http://creativecommons.org/ns#"
   xmlns:rdf="http://www.w3.org/1999/02/22-rdf-syntax-ns#"
   xmlns:svg="http://www.w3.org/2000/svg"
   xmlns="http://www.w3.org/2000/svg"
   viewBox="0 0 298.73334 63.346668"
   height="63.346668"
   width="298.73334"
   xml:space="preserve"
   id="svg2"
   version="1.1"><metadata
     id="metadata8"><rdf:RDF><cc:Work
         rdf:about=""><dc:format>image/svg+xml</dc:format><dc:type
           rdf:resource="http://purl.org/dc/dcmitype/StillImage" /></cc:Work></rdf:RDF></metadata><defs
     id="defs6" /><g
     transform="matrix(1.3333333,0,0,-1.3333333,0,63.346667)"
     id="g10"><g
       transform="scale(0.1)"
       id="g12"><path
         id="path14"
         style="fill:#234e9a;fill-opacity:1;fill-rule:nonzero;stroke:none"
         d="m 933.406,294.324 c 15.832,0 29.242,13.067 29.242,29.356 0,15.89 -13.41,28.476 -29.425,28.476 h -28.719 v -57.832 z m -36.519,63.321 c 0,1.125 0.984,2.14 2.117,2.14 h 34.746 c 20.027,0 36.484,-16.367 36.484,-36.25 0,-20.176 -16.457,-36.648 -36.336,-36.648 h -29.394 v -38.125 c 0,-1.164 -0.957,-2.114 -2.59,-2.114 h -2.91 c -1.133,0 -2.117,0.95 -2.117,2.114 v 108.883" /><path
         id="path16"
         style="fill:#234e9a;fill-opacity:1;fill-rule:nonzero;stroke:none"
         d="m 1034.79,297.051 c 15.52,0 28.6,12.121 28.6,28.117 0,15.348 -13.08,27.137 -28.77,27.137 h -33.91 v -55.254 z m -41.841,60.594 c 0,1.125 0.813,2.101 2.071,2.101 h 40.09 c 19.73,0 36.04,-14.875 36.04,-34.578 0,-16.289 -11.34,-29.426 -26.68,-33.781 l 23.6,-41.867 c 0.82,-1.266 0.47,-2.911 -1.16,-2.911 h -4.97 c -1.16,0 -1.79,0.508 -2.27,1.496 l -23.44,42.333 c -2.08,-0.133 -3.87,-0.133 -5.95,-0.133 h -29.77 v -41.543 c 0,-1.164 -0.959,-2.153 -2.588,-2.153 h -2.902 c -1.114,0 -2.071,0.989 -2.071,2.153 v 108.883" /><path
         id="path18"
         style="fill:#234e9a;fill-opacity:1;fill-rule:nonzero;stroke:none"
         d="m 1098.03,357.645 c 0,1.125 0.95,2.14 2.1,2.14 h 3.53 c 1.14,0 2.13,-1.015 2.13,-2.14 V 248.762 c 0,-1.313 -1.16,-2.114 -2.27,-2.114 h -3.39 c -1.15,0 -2.1,0.95 -2.1,2.114 v 108.883" /><path
         id="path20"
         style="fill:#234e9a;fill-opacity:1;fill-rule:nonzero;stroke:none"
         d="m 1140.06,359.277 c 0,1.297 1.14,2.102 2.41,2.102 h 2.74 l 77.61,-101.02 h 0.15 v 97.317 c 0,1.094 0.94,2.07 2.03,2.07 h 3.3 c 1.12,0 2.07,-0.976 2.07,-2.07 V 247.117 c 0,-1.441 -1.31,-2.097 -2.62,-2.097 h -2.07 c -0.17,0 -1.44,0.468 -78.2,101.992 h -0.15 v -98.289 c 0,-1.094 -0.96,-2.075 -2.12,-2.075 h -3.05 c -1.14,0 -2.1,0.981 -2.1,2.075 v 110.554" /><path
         id="path22"
         style="fill:#234e9a;fill-opacity:1;fill-rule:nonzero;stroke:none"
         d="m 1257.94,261.672 1.42,1.922 c 1.12,1.308 2.28,1.777 3.51,0.652 1.68,-1.484 13.65,-12.441 29.94,-12.441 14.69,0 27.18,9.867 27.18,21.664 0,14.402 -11.84,20.855 -31.39,27.461 -18.72,6.597 -31.17,13.281 -31.17,31.851 0,12.09 9.69,28.559 34.91,28.559 16,0 27.8,-8.235 27.8,-8.235 0.64,-0.507 1.74,-1.593 0.64,-3.371 -0.51,-0.652 -1.01,-1.453 -1.3,-2.105 -0.94,-1.313 -1.92,-1.781 -3.56,-0.805 -0.51,0.332 -11.32,7.617 -23.72,7.617 -19.9,0 -27.37,-12.293 -27.37,-21.511 0,-13.75 10.53,-19.7 26.86,-25.032 22.13,-7.625 36.2,-15.347 36.2,-34.109 0,-16.184 -16.68,-28.769 -35.26,-28.769 -19.23,0 -32.15,11.32 -34.25,13.281 -0.95,0.793 -1.74,1.59 -0.44,3.371" /><path
         id="path24"
         style="fill:#234e9a;fill-opacity:1;fill-rule:nonzero;stroke:none"
         d="m 1425.2,307.391 c 15.21,0 24.1,9.504 24.1,22.785 0,14.043 -9.72,22.488 -25.26,22.488 h -28.87 v -45.273 z m 0.99,-53.993 c 15.67,0 26.66,10.047 26.66,24.129 0,14.368 -12.29,22.934 -27.65,22.934 h -30.18 v -47.063 z m -38.61,104.278 c 0,1.094 0.98,2.07 2.07,2.07 h 34.39 c 19.92,0 33.5,-11.465 33.5,-29.25 0,-12.773 -7.77,-22.129 -17.75,-26.191 11.43,-3.043 21.26,-11.422 21.26,-26.961 0,-18.106 -14.51,-30.696 -35.48,-30.696 h -35.92 c -1.09,0 -2.07,0.981 -2.07,2.075 v 108.953" /><path
         id="path26"
         style="fill:#234e9a;fill-opacity:1;fill-rule:nonzero;stroke:none"
         d="m 1488.27,357.645 c 0,1.125 0.98,2.14 2.1,2.14 h 64.81 c 1.16,0 2.09,-1.015 2.09,-2.14 v -2.762 c 0,-1.121 -0.93,-2.102 -2.09,-2.102 h -59.14 v -44.597 h 51.23 c 1.12,0 2.09,-0.938 2.09,-2.063 v -2.762 c 0,-1.164 -0.97,-2.097 -2.09,-2.097 h -51.23 v -47.824 h 59.14 c 1.16,0 2.09,-0.989 2.09,-2.11 v -2.566 c 0,-1.164 -0.93,-2.114 -2.09,-2.114 h -64.81 c -1.12,0 -2.1,0.95 -2.1,2.114 v 108.883" /><path
         id="path28"
         style="fill:#234e9a;fill-opacity:1;fill-rule:nonzero;stroke:none"
         d="m 1626.8,297.051 c 15.52,0 28.63,12.121 28.63,28.117 0,15.348 -13.11,27.137 -28.78,27.137 h -33.95 v -55.254 z m -41.88,60.594 c 0,1.125 0.84,2.101 2.15,2.101 h 40.09 c 19.67,0 35.99,-14.875 35.99,-34.578 0,-16.289 -11.31,-29.426 -26.63,-33.781 l 23.59,-41.867 c 0.8,-1.266 0.5,-2.911 -1.16,-2.911 h -5.01 c -1.13,0 -1.74,0.508 -2.25,1.496 l -23.44,42.333 c -2.11,-0.133 -3.85,-0.133 -5.96,-0.133 h -29.74 v -41.543 c 0,-1.164 -0.95,-2.153 -2.62,-2.153 h -2.86 c -1.12,0 -2.15,0.989 -2.15,2.153 v 108.883" /><path
         id="path30"
         style="fill:#234e9a;fill-opacity:1;fill-rule:nonzero;stroke:none"
         d="m 1690.04,359.277 c 0,1.297 1.16,2.102 2.43,2.102 h 2.75 l 77.58,-101.02 h 0.15 v 97.317 c 0,1.094 0.94,2.07 2.1,2.07 h 3.19 c 1.16,0 2.11,-0.976 2.11,-2.07 V 247.117 c 0,-1.441 -1.31,-2.097 -2.58,-2.097 h -2.07 c -0.21,0 -1.44,0.468 -78.22,101.992 h -0.15 v -98.289 c 0,-1.094 -0.94,-2.075 -2.11,-2.075 h -3.04 c -1.16,0 -2.14,0.981 -2.14,2.075 v 110.554" /><path
         id="path32"
         style="fill:#234e9a;fill-opacity:1;fill-rule:nonzero;stroke:none"
         d="m 1814.71,357.645 c 0,1.125 0.97,2.14 2.07,2.14 h 3.41 c 1.26,0 2.1,-1.015 2.1,-2.14 v -49.61 h 72.57 v 49.61 c 0,1.125 0.94,2.14 2.06,2.14 h 3.42 c 1.27,0 2.06,-1.015 2.06,-2.14 V 248.762 c 0,-1.164 -0.79,-2.114 -2.06,-2.114 h -3.42 c -1.12,0 -2.06,0.95 -2.06,2.114 v 52.5 h -72.57 v -52.5 c 0,-1.164 -0.84,-2.114 -2.1,-2.114 h -3.41 c -1.1,0 -2.07,0.95 -2.07,2.114 v 108.883" /><path
         id="path34"
         style="fill:#234e9a;fill-opacity:1;fill-rule:nonzero;stroke:none"
         d="m 2000.44,284.133 -27.65,65.125 h -0.36 l -28.08,-65.125 z m -79.85,-35.559 49.77,112.442 c 0.33,0.695 1.16,1.164 1.93,1.164 h 0.5 c 0.8,0 1.6,-0.188 2.11,-1.164 l 49.27,-112.442 c 0.33,-0.945 0.33,-1.926 -1.45,-1.926 h -4.2 c -1.17,0 -1.93,0.801 -2.26,1.457 l -13.06,29.715 h -61.75 l -12.95,-29.715 c -0.3,-0.656 -1.13,-1.457 -2.29,-1.457 h -4.5 c -1.12,0 -1.59,0.657 -1.12,1.926" /><path
         id="path36"
         style="fill:#234e9a;fill-opacity:1;fill-rule:nonzero;stroke:none"
         d="m 2084.19,297.051 c 15.49,0 28.58,12.121 28.58,28.117 0,15.348 -13.09,27.137 -28.73,27.137 h -33.96 v -55.254 z m -41.84,60.594 c 0,1.125 0.76,2.101 2.06,2.101 h 40.06 c 19.75,0 36.07,-14.875 36.07,-34.578 0,-16.289 -11.28,-29.426 -26.66,-33.781 l 23.61,-41.867 c 0.8,-1.266 0.44,-2.911 -1.16,-2.911 h -5 c -1.16,0 -1.75,0.508 -2.26,1.496 l -23.44,42.333 c -2.09,-0.133 -3.84,-0.133 -5.98,-0.133 h -29.72 v -41.543 c 0,-1.164 -0.98,-2.153 -2.61,-2.153 h -2.91 c -1.15,0 -2.06,0.989 -2.06,2.153 v 108.883" /><path
         id="path38"
         style="fill:#234e9a;fill-opacity:1;fill-rule:nonzero;stroke:none"
         d="m 2182.29,253.586 c 28.31,0 50.07,21.512 50.07,49.773 0,27.942 -21.76,49.422 -50.07,49.422 h -27.28 v -99.195 z m -34.9,104.059 c 0,1.125 1.02,2.14 1.97,2.14 h 34.24 c 31.35,0 56.9,-25.398 56.9,-56.426 0,-31.496 -25.55,-56.711 -56.9,-56.711 h -34.24 c -0.95,0 -1.97,0.95 -1.97,2.114 v 108.883" /><path
         id="path40"
         style="fill:#f2562e;fill-opacity:1;fill-rule:nonzero;stroke:none"
         d="m 440.293,125.645 c 0,0 28.047,54.023 94.922,69.882 58.418,13.789 100.996,-1.379 136.172,-3.261 70.664,-3.782 94.187,27.175 111.804,45.418 0,0 -11.265,-78.368 -102.703,-89.981 -58.445,-7.398 -126.738,27.649 -240.195,-22.058" /><path
         id="path42"
         style="fill:#f2562e;fill-opacity:1;fill-rule:nonzero;stroke:none"
         d="m 28.9141,318.309 c 0,0 16.0273,15.492 45.4882,13.097 46.1837,-3.769 117.8827,-37.297 170.7147,-106.523 0,0 -46.14,0 -102.051,30.691 -55.898,30.696 -86.0621,63.938 -114.1519,62.735" /><path
         id="path44"
         style="fill:#f2562e;fill-opacity:1;fill-rule:nonzero;stroke:none"
         d="m 770.84,52.6836 c 0,0 -114.805,54.1644 -250.371,27.3945 C 415.137,59.2852 343.672,0 343.672,0 c 0,0 27.793,71.3672 97.844,106.086 0,0 163.836,89.258 329.324,-53.4024" /><path
         id="path46"
         style="fill:#f2562e;fill-opacity:1;fill-rule:nonzero;stroke:none"
         d="m 358.184,169.441 c 0,0 -32.137,1.446 -84.192,61.133 -90.957,104.211 -129.402,115.09 -129.402,115.09 0,0 59.961,15.645 120.859,-31.055 38.047,-29.171 62.332,-94.187 92.735,-145.168" /><path
         id="path48"
         style="fill:#f2562e;fill-opacity:1;fill-rule:nonzero;stroke:none"
         d="m 306.438,465.547 c 0,0 -4.907,-28.227 11.914,-63.098 20.918,-43.316 28.992,-45.644 48.562,-92.234 18.547,-44.004 20.734,-85.52 18.547,-108.008 0,0 -82.363,74.734 -112.922,175.606 -8.254,27.285 -4.57,75.179 33.899,87.734" /><path
         id="path50"
         style="fill:#f2562e;fill-opacity:1;fill-rule:nonzero;stroke:none"
         d="m 389.922,470.23 c 0,0 -23.406,-89.839 35.305,-282.546 0,0 72.253,125.109 -35.305,282.546" /><path
         id="path52"
         style="fill:#f2562e;fill-opacity:1;fill-rule:nonzero;stroke:none"
         d="m 503.574,202.676 c 0,0 45.813,54.277 91.653,105.476 42.363,47.309 84.128,91.145 103.152,105.871 0.676,0.547 1.289,1.055 1.926,1.454 0,0 -3.867,-64.723 -56.907,-123.438 C 572.246,213.34 503.574,202.676 503.574,202.676" /><path
         id="path54"
         style="fill:#f2562e;fill-opacity:1;fill-rule:nonzero;stroke:none"
         d="m 58.6055,277.676 c 0,0 53.2815,-44.231 99.7535,-55.664 62.52,-15.34 173.02,-35.598 178.75,-114.621 0,0 -10.593,26.964 -100.398,44.922 -89.836,18.031 -144.8946,29.425 -178.1055,125.363" /><path
         id="path56"
         style="fill:#f2562e;fill-opacity:1;fill-rule:nonzero;stroke:none"
         d="m 328.965,54.6367 c 0,0 -14.649,82.3283 -150.11,82.3283 C 63.6992,136.965 0,83.0156 0,83.0156 c 0,0 39.9883,-4.9023 82.8516,-4.0703 C 125.781,79.707 285.773,97.4492 328.965,54.6367" /><path
         id="path58"
         style="fill:#f2562e;fill-opacity:1;fill-rule:nonzero;stroke:none"
         d="m 529.844,474.145 c 0,0 -30.879,13.136 -55.906,-56.602 -23.645,-65.777 6.265,-123.617 6.265,-123.617 0,0 19.965,20.644 32.485,90.203 9.734,53.879 9.917,68.898 17.156,90.016" /><path
         id="path60"
         style="fill:#f2562e;fill-opacity:1;fill-rule:nonzero;stroke:none"
         d="m 619.668,420.883 c 0,0 -49.746,-4.574 -90.73,-82.328 -12.297,-23.332 -39.805,-86.719 -39.805,-86.719 0,0 15.769,-0.723 29.668,8.055 13.023,8.273 31.453,25.547 47.929,54.613 24.325,43.023 52.938,106.379 52.938,106.379" /><path
         id="path62"
         style="fill:#234e9a;fill-opacity:1;fill-rule:nonzero;stroke:none"
         d="m 955.793,183.953 c 17.156,0 29.898,-5.301 41.562,-15.965 1.563,-1.379 1.563,-3.41 0.204,-4.785 l -13.426,-13.937 c -1.184,-1.2 -3.086,-1.2 -4.297,0 -6.367,5.695 -14.785,8.781 -23.195,8.781 -19.422,0 -33.7,-16.184 -33.7,-35.41 0,-19.121 14.461,-34.9143 33.844,-34.9143 8.098,0 16.875,2.9531 23.051,8.2851 1.211,1.0117 3.445,1.0117 4.48,-0.2265 l 13.418,-14.2188 c 1.184,-1.2031 0.996,-3.4492 -0.175,-4.6484 -11.719,-11.3594 -26.504,-16.6524 -41.766,-16.6524 -34.375,0 -62.063,27.2891 -62.063,61.6793 0,34.399 27.688,62.012 62.063,62.012" /><path
         id="path64"
         style="fill:#234e9a;fill-opacity:1;fill-rule:nonzero;stroke:none"
         d="m 1016.45,179.012 c 0,1.711 1.55,3.273 3.26,3.273 h 21.13 c 1.9,0 3.28,-1.562 3.28,-3.273 v -69.617 c 0,-12.0122 8.91,-21.6333 21.13,-21.6333 12.39,0 21.49,9.6211 21.49,21.6333 v 69.617 c 0,1.711 1.36,3.273 3.26,3.273 h 21.14 c 1.7,0 3.26,-1.562 3.26,-3.273 v -70.996 c 0,-26.1293 -21.98,-47.7933 -49.15,-47.7933 -27.01,0 -48.8,21.664 -48.8,47.7933 v 70.996" /><path
         id="path66"
         style="fill:#234e9a;fill-opacity:1;fill-rule:nonzero;stroke:none"
         d="m 1142.05,179.012 c 0,1.711 1.38,3.273 3.27,3.273 h 20.46 c 1.74,0 3.26,-1.562 3.26,-3.273 V 87.2188 h 40.9 c 1.89,0 3.26,-1.5547 3.26,-3.2657 V 65.2344 c 0,-1.711 -1.37,-3.2617 -3.26,-3.2617 h -64.62 c -1.89,0 -3.27,1.5507 -3.27,3.2617 V 179.012" /><path
         id="path68"
         style="fill:#234e9a;fill-opacity:1;fill-rule:nonzero;stroke:none"
         d="m 1238.79,156.992 h -24.53 c -1.89,0 -3.26,1.524 -3.26,3.301 v 18.719 c 0,1.711 1.37,3.273 3.26,3.273 h 76.27 c 1.88,0 3.26,-1.562 3.26,-3.273 v -18.719 c 0,-1.777 -1.38,-3.301 -3.26,-3.301 h -24.57 V 65.2344 c 0,-1.711 -1.56,-3.2617 -3.26,-3.2617 h -20.65 c -1.67,0 -3.26,1.5507 -3.26,3.2617 v 91.7576" /><path
         id="path70"
         style="fill:#234e9a;fill-opacity:1;fill-rule:nonzero;stroke:none"
         d="m 1309.25,179.012 c 0,1.711 1.59,3.273 3.26,3.273 h 21.12 c 1.96,0 3.33,-1.562 3.33,-3.273 v -69.617 c 0,-12.0122 8.93,-21.6333 21.13,-21.6333 12.33,0 21.47,9.6211 21.47,21.6333 v 69.617 c 0,1.711 1.38,3.273 3.23,3.273 h 21.19 c 1.7,0 3.27,-1.562 3.27,-3.273 v -70.996 c 0,-26.1293 -22.03,-47.7933 -49.16,-47.7933 -27,0 -48.84,21.664 -48.84,47.7933 v 70.996" /><path
         id="path72"
         style="fill:#234e9a;fill-opacity:1;fill-rule:nonzero;stroke:none"
         d="m 1432.65,179.012 c 0,1.711 1.56,3.273 3.3,3.273 h 21.11 c 1.89,0 3.27,-1.562 3.27,-3.273 v -69.617 c 0,-12.0122 8.93,-21.6333 21.15,-21.6333 12.38,0 21.45,9.6211 21.45,21.6333 v 69.617 c 0,1.711 1.38,3.273 3.3,3.273 h 21.15 c 1.67,0 3.26,-1.562 3.26,-3.273 v -70.996 c 0,-26.1293 -21.98,-47.7933 -49.16,-47.7933 -26.96,0 -48.83,21.664 -48.83,47.7933 v 70.996" /><path
         id="path74"
         style="fill:#234e9a;fill-opacity:1;fill-rule:nonzero;stroke:none"
         d="m 1610.68,130.867 c 7.04,0 13.07,6.535 13.07,13.75 0,7.258 -6.03,13.106 -13.07,13.106 h -25.47 v -26.856 z m -52.39,48.117 c 0,1.7 1.35,3.262 3.27,3.262 h 51.38 c 20.6,0 37.48,-16.609 37.48,-37.117 0,-15.824 -10.53,-28.52 -25.44,-34.543 l 23.52,-43.6446 c 1.23,-2.2148 0,-4.9687 -2.9,-4.9687 h -22.87 c -1.37,0 -2.39,0.832 -2.75,1.5507 l -22.86,45.5076 h -11.91 V 65.2344 c 0,-1.711 -1.52,-3.2617 -3.19,-3.2617 h -20.46 c -1.92,0 -3.27,1.5507 -3.27,3.2617 V 178.984" /><path
         id="path76"
         style="fill:#234e9a;fill-opacity:1;fill-rule:nonzero;stroke:none"
         d="m 1673.42,179.012 c 0,1.711 1.35,3.273 3.27,3.273 h 71.15 c 1.89,0 3.26,-1.562 3.26,-3.273 v -18.75 c 0,-1.707 -1.37,-3.231 -3.26,-3.231 h -47.61 v -24.746 h 39.19 c 1.74,0 3.27,-1.562 3.27,-3.301 v -18.722 c 0,-1.739 -1.53,-3.27 -3.27,-3.27 h -39.19 V 65.2344 c 0,-1.711 -1.56,-3.2617 -3.26,-3.2617 h -20.28 c -1.92,0 -3.27,1.5507 -3.27,3.2617 V 179.012" /><path
         id="path78"
         style="fill:#234e9a;fill-opacity:1;fill-rule:nonzero;stroke:none"
         d="m 1823.09,87.7227 c 18.94,0 34.4,15.5003 34.4,34.2183 0,18.907 -15.46,34.543 -34.4,34.543 -18.73,0 -34.17,-15.636 -34.17,-34.543 0,-18.718 15.44,-34.2183 34.17,-34.2183 m 0,96.2303 c 34.4,0 61.9,-27.644 61.9,-62.012 0,-34.3902 -27.5,-61.7183 -61.9,-61.7183 -34.36,0 -61.68,27.3281 -61.68,61.7183 0,34.368 27.32,62.012 61.68,62.012" /><path
         id="path80"
         style="fill:#234e9a;fill-opacity:1;fill-rule:nonzero;stroke:none"
         d="m 1905.6,180.867 c 0,1.738 1.52,3.086 3.27,3.086 h 4.31 l 68.54,-65.965 h 0.18 v 61.024 c 0,1.672 1.38,3.234 3.3,3.234 h 20.61 c 1.71,0 3.27,-1.562 3.27,-3.234 V 63.3477 c 0,-1.7461 -1.56,-3.086 -3.27,-3.086 h -2.75 c -0.51,0 -1.89,0.5078 -2.25,0.8321 l -67.85,68.2112 h -0.23 V 65.2344 c 0,-1.711 -1.37,-3.2305 -3.26,-3.2305 h -20.46 c -1.71,0 -3.23,1.5195 -3.23,3.2305 l -0.18,115.6326" /><path
         id="path82"
         style="fill:#234e9a;fill-opacity:1;fill-rule:nonzero;stroke:none"
         d="m 2081.89,87.4023 c 19.42,0 33.5,15.2737 33.5,34.9027 0,19.414 -14.08,34.687 -33.5,34.687 h -16.5 V 87.4023 Z m -43.28,91.5817 c 0,1.7 1.38,3.262 3.09,3.262 h 41.94 c 33.13,0 60.31,-26.953 60.31,-59.941 0,-33.3792 -27.18,-60.3011 -60.31,-60.3011 h -41.94 c -1.71,0 -3.09,1.5195 -3.09,3.2305 V 178.984" /><path
         id="path84"
         style="fill:#234e9a;fill-opacity:1;fill-rule:nonzero;stroke:none"
         d="m 2158.06,78.2891 8.05,14.2695 c 1.42,2.2461 4.65,1.8828 5.88,1.043 0.66,-0.3594 13.06,-9.461 24.39,-9.461 6.85,0 11.89,4.3164 11.89,10.3008 0,7.2186 -6.02,12.7386 -17.74,17.3826 -14.77,5.805 -33.34,17.348 -33.34,37.949 0,17.012 13.24,34.18 39.72,34.18 17.83,0 31.61,-9.109 36.76,-12.851 2.07,-1.231 1.74,-4.317 1.02,-5.504 l -8.74,-13.215 c -1.2,-1.887 -4.32,-3.449 -5.88,-2.246 -1.53,0.832 -14.08,10.301 -24.56,10.301 -6.21,0 -10.82,-4.129 -10.82,-8.778 0,-6.347 5.15,-11.172 18.72,-16.648 13.39,-5.332 34.69,-15.824 34.69,-39.1917 0,-17.707 -15.24,-35.5976 -40.49,-35.5976 -22.4,0 -34.76,9.289 -38.68,13.2461 -1.74,1.746 -2.25,2.3984 -0.87,4.8203" /></g></g></svg>